<svg xmlns="http://www.w3.org/2000/svg" width="800" height="1000" viewBox="0 0 800 1000">
<defs><radialGradient id="bg" cx=".48" cy=".43" r=".67"><stop stop-color="#403067"/><stop offset=".5" stop-color="#201838"/><stop offset="1" stop-color="#0d0b18"/></radialGradient><radialGradient id="particle" cx=".28" cy=".24" r=".8"><stop stop-color="#fff4ff"/><stop offset=".22" stop-color="#e2bff8"/><stop offset=".55" stop-color="#aa78cf"/><stop offset="1" stop-color="#49355f"/></radialGradient><radialGradient id="aura"><stop stop-color="#aa8ada" stop-opacity=".16"/><stop offset="1" stop-color="#9a7aba" stop-opacity="0"/></radialGradient></defs><path fill="url(#bg)" d="M0 0h800v1000H0z"/><ellipse cx="410" cy="457" rx="360" ry="390" fill="url(#aura)"/>
<g fill="none" stroke="#bca8d1" stroke-opacity=".2" stroke-width=".8"><ellipse cx="406" cy="479" rx="292" ry="170" transform="rotate(-40 406 479)"/><ellipse cx="406" cy="479" rx="292" ry="170" transform="rotate(35 406 479)"/><ellipse cx="406" cy="479" rx="154" ry="320" transform="rotate(30 406 479)"/></g>
<circle cx="316.3" cy="170.2" r="3.1" fill="url(#particle)" opacity="0.57"/>
<circle cx="174.8" cy="259.8" r="3.4" fill="url(#particle)" opacity="0.56"/>
<circle cx="134.9" cy="361.7" r="3.6" fill="url(#particle)" opacity="0.58"/>
<circle cx="373.5" cy="764.5" r="3.7" fill="url(#particle)" opacity="0.60"/>
<circle cx="161.0" cy="561.9" r="4.5" fill="url(#particle)" opacity="0.62"/>
<circle cx="416.9" cy="142.6" r="4.6" fill="url(#particle)" opacity="0.55"/>
<circle cx="601.3" cy="273.6" r="4.9" fill="url(#particle)" opacity="0.60"/>
<circle cx="296.4" cy="223.5" r="4.9" fill="url(#particle)" opacity="0.63"/>
<circle cx="275.9" cy="750.7" r="5.0" fill="url(#particle)" opacity="0.57"/>
<circle cx="435.1" cy="788.4" r="5.1" fill="url(#particle)" opacity="0.56"/>
<circle cx="527.3" cy="742.6" r="5.1" fill="url(#particle)" opacity="0.58"/>
<circle cx="379.4" cy="183.1" r="5.2" fill="url(#particle)" opacity="0.61"/>
<circle cx="237.9" cy="695.1" r="5.3" fill="url(#particle)" opacity="0.61"/>
<circle cx="536.9" cy="685.9" r="5.4" fill="url(#particle)" opacity="0.64"/>
<circle cx="162.7" cy="410.7" r="5.6" fill="url(#particle)" opacity="0.64"/>
<circle cx="475.2" cy="177.5" r="5.7" fill="url(#particle)" opacity="0.58"/>
<circle cx="217.1" cy="634.1" r="5.8" fill="url(#particle)" opacity="0.65"/>
<circle cx="114.3" cy="535.0" r="5.8" fill="url(#particle)" opacity="0.57"/>
<circle cx="185.0" cy="697.8" r="5.9" fill="url(#particle)" opacity="0.55"/>
<circle cx="131.2" cy="467.2" r="5.9" fill="url(#particle)" opacity="0.60"/>
<circle cx="548.2" cy="280.9" r="6.1" fill="url(#particle)" opacity="0.66"/>
<circle cx="520.0" cy="225.1" r="6.1" fill="url(#particle)" opacity="0.62"/>
<circle cx="613.6" cy="338.6" r="6.2" fill="url(#particle)" opacity="0.64"/>
<circle cx="571.2" cy="211.0" r="6.2" fill="url(#particle)" opacity="0.56"/>
<circle cx="698.5" cy="459.8" r="6.2" fill="url(#particle)" opacity="0.56"/>
<circle cx="657.7" cy="423.3" r="6.4" fill="url(#particle)" opacity="0.61"/>
<circle cx="595.1" cy="667.9" r="6.5" fill="url(#particle)" opacity="0.60"/>
<circle cx="288.9" cy="675.9" r="6.5" fill="url(#particle)" opacity="0.67"/>
<circle cx="175.3" cy="500.4" r="6.8" fill="url(#particle)" opacity="0.66"/>
<circle cx="631.6" cy="576.7" r="7.0" fill="url(#particle)" opacity="0.63"/>
<circle cx="582.8" cy="611.0" r="7.0" fill="url(#particle)" opacity="0.67"/>
<circle cx="214.8" cy="573.2" r="7.1" fill="url(#particle)" opacity="0.69"/>
<circle cx="634.8" cy="483.0" r="7.1" fill="url(#particle)" opacity="0.65"/>
<circle cx="433.1" cy="212.6" r="7.3" fill="url(#particle)" opacity="0.64"/>
<circle cx="473.2" cy="255.7" r="7.3" fill="url(#particle)" opacity="0.69"/>
<circle cx="607.8" cy="400.4" r="7.3" fill="url(#particle)" opacity="0.68"/>
<circle cx="235.2" cy="231.9" r="7.3" fill="url(#particle)" opacity="0.59"/>
<circle cx="649.7" cy="630.6" r="7.5" fill="url(#particle)" opacity="0.57"/>
<circle cx="353.4" cy="234.3" r="7.7" fill="url(#particle)" opacity="0.67"/>
<circle cx="664.5" cy="354.7" r="7.8" fill="url(#particle)" opacity="0.58"/>
<circle cx="480.3" cy="684.1" r="8.0" fill="url(#particle)" opacity="0.68"/>
<circle cx="205.5" cy="369.9" r="8.0" fill="url(#particle)" opacity="0.68"/>
<circle cx="557.9" cy="339.8" r="8.0" fill="url(#particle)" opacity="0.71"/>
<circle cx="164.1" cy="629.5" r="8.1" fill="url(#particle)" opacity="0.59"/>
<circle cx="272.4" cy="619.8" r="8.1" fill="url(#particle)" opacity="0.72"/>
<circle cx="400.9" cy="263.1" r="8.2" fill="url(#particle)" opacity="0.72"/>
<circle cx="584.6" cy="453.4" r="8.3" fill="url(#particle)" opacity="0.72"/>
<circle cx="671.4" cy="525.1" r="8.3" fill="url(#particle)" opacity="0.59"/>
<circle cx="182.5" cy="316.6" r="8.4" fill="url(#particle)" opacity="0.61"/>
<circle cx="408.4" cy="720.5" r="8.4" fill="url(#particle)" opacity="0.66"/>
<circle cx="205.1" cy="450.4" r="8.6" fill="url(#particle)" opacity="0.71"/>
<circle cx="464.4" cy="740.6" r="9.2" fill="url(#particle)" opacity="0.62"/>
<circle cx="598.4" cy="529.0" r="9.2" fill="url(#particle)" opacity="0.69"/>
<circle cx="236.5" cy="289.8" r="9.2" fill="url(#particle)" opacity="0.65"/>
<circle cx="323.6" cy="725.7" r="9.3" fill="url(#particle)" opacity="0.63"/>
<circle cx="364.1" cy="684.5" r="9.7" fill="url(#particle)" opacity="0.70"/>
<circle cx="495.7" cy="308.3" r="9.8" fill="url(#particle)" opacity="0.74"/>
<circle cx="231.6" cy="518.2" r="10.1" fill="url(#particle)" opacity="0.74"/>
<circle cx="547.3" cy="396.1" r="10.1" fill="url(#particle)" opacity="0.76"/>
<circle cx="529.8" cy="625.4" r="10.7" fill="url(#particle)" opacity="0.71"/>
<circle cx="268.3" cy="475.9" r="11.0" fill="url(#particle)" opacity="0.80"/>
<circle cx="308.6" cy="351.1" r="11.4" fill="url(#particle)" opacity="0.79"/>
<circle cx="544.8" cy="491.2" r="11.6" fill="url(#particle)" opacity="0.78"/>
<circle cx="291.7" cy="283.2" r="11.8" fill="url(#particle)" opacity="0.70"/>
<circle cx="512.9" cy="443.0" r="11.8" fill="url(#particle)" opacity="0.83"/>
<circle cx="248.3" cy="417.5" r="12.2" fill="url(#particle)" opacity="0.76"/>
<circle cx="310.5" cy="510.1" r="12.5" fill="url(#particle)" opacity="0.86"/>
<circle cx="255.7" cy="348.6" r="12.6" fill="url(#particle)" opacity="0.73"/>
<circle cx="343.0" cy="298.0" r="12.7" fill="url(#particle)" opacity="0.75"/>
<circle cx="551.6" cy="556.5" r="12.8" fill="url(#particle)" opacity="0.75"/>
<circle cx="430.5" cy="662.4" r="13.0" fill="url(#particle)" opacity="0.73"/>
<circle cx="497.8" cy="559.5" r="13.0" fill="url(#particle)" opacity="0.81"/>
<circle cx="303.8" cy="409.4" r="13.2" fill="url(#particle)" opacity="0.83"/>
<circle cx="433.5" cy="308.1" r="13.2" fill="url(#particle)" opacity="0.77"/>
<circle cx="336.2" cy="635.6" r="13.6" fill="url(#particle)" opacity="0.75"/>
<circle cx="477.6" cy="617.0" r="13.9" fill="url(#particle)" opacity="0.77"/>
<circle cx="486.0" cy="504.1" r="13.9" fill="url(#particle)" opacity="0.86"/>
<circle cx="277.3" cy="562.7" r="13.9" fill="url(#particle)" opacity="0.78"/>
<circle cx="496.1" cy="366.2" r="14.0" fill="url(#particle)" opacity="0.80"/>
<circle cx="461.9" cy="427.2" r="14.1" fill="url(#particle)" opacity="0.89"/>
<circle cx="393.6" cy="620.9" r="15.0" fill="url(#particle)" opacity="0.79"/>
<circle cx="435.4" cy="520.2" r="15.3" fill="url(#particle)" opacity="0.91"/>
<circle cx="384.1" cy="336.5" r="15.3" fill="url(#particle)" opacity="0.82"/>
<circle cx="372.4" cy="497.4" r="15.6" fill="url(#particle)" opacity="0.94"/>
<circle cx="331.1" cy="576.5" r="16.0" fill="url(#particle)" opacity="0.82"/>
<circle cx="360.4" cy="387.2" r="16.1" fill="url(#particle)" opacity="0.87"/>
<circle cx="443.2" cy="369.8" r="16.1" fill="url(#particle)" opacity="0.85"/>
<circle cx="431.9" cy="580.5" r="16.2" fill="url(#particle)" opacity="0.84"/>
<circle cx="334.7" cy="457.5" r="16.8" fill="url(#particle)" opacity="0.90"/>
<circle cx="420.0" cy="470.0" r="17.2" fill="url(#particle)" opacity="0.97"/>
<circle cx="404.3" cy="417.1" r="17.9" fill="url(#particle)" opacity="0.93"/>
<circle cx="379.3" cy="553.8" r="17.9" fill="url(#particle)" opacity="0.88"/>
<circle cx="695.1" cy="263.5" r="1.5" fill="#e7d8f6" opacity=".5"/>
<circle cx="454.1" cy="216.7" r="1.4" fill="#e7d8f6" opacity=".5"/>
<circle cx="642.6" cy="705.8" r="1.0" fill="#e7d8f6" opacity=".5"/>
<circle cx="470.2" cy="557.7" r="1.2" fill="#e7d8f6" opacity=".5"/>
<circle cx="343.6" cy="223.0" r="0.9" fill="#e7d8f6" opacity=".5"/>
<circle cx="303.3" cy="170.0" r="0.8" fill="#e7d8f6" opacity=".5"/>
<circle cx="513.7" cy="496.6" r="0.8" fill="#e7d8f6" opacity=".5"/>
<circle cx="633.1" cy="173.0" r="0.6" fill="#e7d8f6" opacity=".5"/>
<circle cx="504.8" cy="757.4" r="1.4" fill="#e7d8f6" opacity=".5"/>
<circle cx="493.9" cy="451.7" r="0.8" fill="#e7d8f6" opacity=".5"/>
<circle cx="693.2" cy="594.6" r="0.8" fill="#e7d8f6" opacity=".5"/>
<circle cx="654.4" cy="654.8" r="1.5" fill="#e7d8f6" opacity=".5"/>
<circle cx="319.0" cy="442.2" r="1.1" fill="#e7d8f6" opacity=".5"/>
<circle cx="264.0" cy="345.2" r="1.4" fill="#e7d8f6" opacity=".5"/>
<circle cx="617.1" cy="751.6" r="1.3" fill="#e7d8f6" opacity=".5"/>
<circle cx="502.3" cy="168.1" r="1.3" fill="#e7d8f6" opacity=".5"/>
<circle cx="198.3" cy="575.6" r="1.2" fill="#e7d8f6" opacity=".5"/>
<circle cx="199.6" cy="632.8" r="0.7" fill="#e7d8f6" opacity=".5"/>
<circle cx="137.1" cy="665.4" r="0.9" fill="#e7d8f6" opacity=".5"/>
<circle cx="401.8" cy="578.8" r="1.1" fill="#e7d8f6" opacity=".5"/>
<circle cx="637.2" cy="700.2" r="0.8" fill="#e7d8f6" opacity=".5"/>
<circle cx="130.5" cy="470.4" r="1.4" fill="#e7d8f6" opacity=".5"/>
<circle cx="225.8" cy="683.2" r="1.0" fill="#e7d8f6" opacity=".5"/>
<circle cx="703.8" cy="177.6" r="0.8" fill="#e7d8f6" opacity=".5"/>
<circle cx="582.8" cy="814.5" r="1.5" fill="#e7d8f6" opacity=".5"/>
<circle cx="641.9" cy="338.0" r="1.1" fill="#e7d8f6" opacity=".5"/>
<circle cx="67.5" cy="459.8" r="1.0" fill="#e7d8f6" opacity=".5"/>
<circle cx="128.3" cy="267.9" r="1.4" fill="#e7d8f6" opacity=".5"/>
<circle cx="422.5" cy="602.1" r="1.4" fill="#e7d8f6" opacity=".5"/>
<circle cx="693.6" cy="796.5" r="0.8" fill="#e7d8f6" opacity=".5"/>
<circle cx="474.9" cy="194.1" r="0.8" fill="#e7d8f6" opacity=".5"/>
<circle cx="318.7" cy="170.3" r="0.7" fill="#e7d8f6" opacity=".5"/>
<circle cx="492.7" cy="701.9" r="0.9" fill="#e7d8f6" opacity=".5"/>
<circle cx="172.3" cy="588.6" r="0.7" fill="#e7d8f6" opacity=".5"/>
<circle cx="654.7" cy="156.4" r="0.8" fill="#e7d8f6" opacity=".5"/>
<circle cx="676.7" cy="630.0" r="0.9" fill="#e7d8f6" opacity=".5"/>
<circle cx="112.0" cy="585.4" r="1.0" fill="#e7d8f6" opacity=".5"/>
<circle cx="101.0" cy="777.4" r="0.7" fill="#e7d8f6" opacity=".5"/>
<g fill="#a89aba" font-family="Arial,Helvetica,sans-serif" font-size="12" letter-spacing="3"><text x="48" y="64">INVISIBLE STRUCTURES</text><text x="48" y="945">08 / PARTICLE</text><text x="751" y="945" text-anchor="end">A FIELD OF POSSIBILITIES</text></g>
</svg>